HIERARCHY
ROOT hip
{
	OFFSET 0.000000 0.000000 0.000000 
	CHANNELS 6 Xposition Yposition Zposition Xrotation Zrotation Yrotation
	JOINT abdomen
	{
		OFFSET 0.000000 3.402643 0.000000 
		CHANNELS 3 Xrotation Zrotation Yrotation
		JOINT chest
		{
			OFFSET 0.000000 8.438565 -0.680529 
			CHANNELS 3 Xrotation Zrotation Yrotation
			JOINT neck
			{
				OFFSET 0.000000 10.207942 -0.272212 
				CHANNELS 3 Xrotation Zrotation Yrotation
				JOINT head
				{
					OFFSET 0.000000 3.130431 0.000000 
					CHANNELS 3 Xrotation Zrotation Yrotation
					End Site
					{
						OFFSET 0.000000 3.130435 0.000000 
					}
				}
			}
			JOINT lCollar
			{
				OFFSET 3.470700 6.669187 -0.816635 
				CHANNELS 3 Yrotation Zrotation Xrotation
				JOINT lShldr
				{
					OFFSET 3.198488 0.000000 0.000000 
					CHANNELS 3 Zrotation Yrotation Xrotation
					JOINT lForeArm
					{
						OFFSET 10.139888 0.000000 0.000000 
						CHANNELS 3 Yrotation Zrotation Xrotation
						JOINT lHand
						{
							OFFSET 8.370511 0.000000 0.000000 
							CHANNELS 3 Zrotation Yrotation Xrotation
							End Site
							{
								OFFSET 4.083176 0.000000 0.000000 
							}
						}
					}
				}
			}
			JOINT rCollar
			{
				OFFSET -3.470700 6.669187 -0.816635 
				CHANNELS 3 Yrotation Zrotation Xrotation
				JOINT rShldr
				{
					OFFSET -3.198488 0.000000 0.000000 
					CHANNELS 3 Zrotation Yrotation Xrotation
					JOINT rForeArm
					{
						OFFSET -10.139888 0.000000 0.000000 
						CHANNELS 3 Yrotation Zrotation Xrotation
						JOINT rHand
						{
							OFFSET -8.370511 0.000000 0.000000 
							CHANNELS 3 Zrotation Yrotation Xrotation
							End Site
							{
								OFFSET -4.083176 0.000000 0.000000 
							}
						}
					}
				}
			}
		}
	}
	JOINT lThigh
	{
		OFFSET 5.308129 -1.633274 1.361059 
		CHANNELS 3 Xrotation Zrotation Yrotation
		JOINT lShin
		{
			OFFSET -2.041588 -20.007561 0.000000 
			CHANNELS 3 Xrotation Zrotation Yrotation
			JOINT lFoot
			{
				OFFSET 0.000000 -19.190928 -1.224953 
				CHANNELS 3 Xrotation Yrotation Zrotation
				End Site
				{
					OFFSET 0.000000 -2.449906 4.627600 
				}
			}
		}
	}
	JOINT rThigh
	{
		OFFSET -5.308129 -1.633274 1.361059 
		CHANNELS 3 Xrotation Zrotation Yrotation
		JOINT rShin
		{
			OFFSET 2.041588 -20.007561 0.000000 
			CHANNELS 3 Xrotation Zrotation Yrotation
			JOINT rFoot
			{
				OFFSET 0.000000 -19.190928 -1.224953 
				CHANNELS 3 Xrotation Yrotation Zrotation
				End Site
				{
					OFFSET 0.000000 -2.449906 4.627600 
				}
			}
		}
	}
}
MOTION
Frames: 15
Frame Time: 0.016667
-1.027642 47.865337 -4.579546 2.016012 2.670284 -3.675616 0.000000 0.000000 0.000000 12.453394 3.229437 2.465279 -12.946401 -0.820216 -0.879096 14.467085 -0.341771 -0.703171 -3.521967 9.154817 6.304141 -44.796074 4.230957 -37.226192 -19.494947 7.479393 20.486916 -5.915082 4.688666 -7.639118 3.089181 -14.089146 8.026228 44.507343 10.859847 -51.654240 17.162746 -14.825048 51.328583 -15.682055 -19.121349 -8.291846 -13.797821 6.972127 9.660799 20.795420 -6.351181 -5.302598 -5.335486 0.237967 -1.789409 -15.096740 -8.671179 -12.085065 25.530497 0.400248 1.456914 -11.664805 0.039201 -0.849596 
-1.121775 47.828293 -4.900580 2.513357 2.944747 -3.158155 0.000000 0.000000 0.000000 12.747182 3.424888 2.338564 -13.580078 -0.722527 -1.084144 14.624208 -0.341759 -0.849653 -3.521967 9.154817 6.304141 -46.127209 2.740218 -37.118252 -19.620678 7.552897 20.141876 -6.057788 4.446756 -7.600812 3.089181 -14.089146 8.026228 45.225124 11.770462 -51.234501 17.086422 -14.713600 51.228390 -15.170074 -18.945824 -8.333847 -14.914565 6.869818 9.516158 21.126604 -6.415770 -5.937636 -4.726382 0.252521 -2.067322 -16.071751 -8.845759 -11.963573 25.787973 0.410270 0.847318 -11.685087 -0.000806 -0.728439 
-1.215941 47.791252 -5.221532 3.006887 3.209511 -2.631031 0.000000 0.000000 0.000000 13.039484 3.620380 2.202128 -14.224000 -0.634605 -1.289200 14.781164 -0.331981 -0.996134 -3.521967 9.154817 6.304141 -47.463543 1.250745 -36.970352 -19.735172 7.618843 19.806122 -6.191041 4.206367 -7.559754 3.089181 -14.089146 8.026228 45.958050 12.684641 -50.794582 17.014936 -14.612237 51.143639 -14.655214 -18.773552 -8.385454 -16.050686 6.774809 9.355292 21.456186 -6.487547 -6.564476 -4.133458 0.272808 -2.331269 -17.044165 -9.008287 -11.868860 26.057173 0.419840 0.189600 -11.695816 -0.042433 -0.575458 
-1.330609 47.761463 -5.490069 3.159153 3.259055 -2.317925 0.000000 0.000000 0.000000 13.448322 3.912456 2.447707 -14.776102 -0.312369 -1.660185 14.872512 -0.458891 -1.152385 -3.521967 9.154817 6.304141 -48.728424 -0.378040 -36.480534 -19.733585 7.601154 19.621265 -6.128383 4.174489 -7.561364 3.089181 -14.089146 8.026228 46.861610 13.517571 -50.400806 16.945721 -14.564480 51.993275 -14.115268 -18.552158 -8.425515 -16.681528 6.948105 9.443064 21.862230 -6.615621 -7.198243 -3.675586 0.271943 -2.519469 -17.525887 -9.020770 -11.881025 26.198975 0.566402 0.022689 -11.530098 -0.047648 -0.534225 
-1.445269 47.731674 -5.758564 3.302756 3.308544 -1.995065 0.000000 0.000000 0.000000 13.849908 4.204353 2.693350 -15.332031 0.000000 -2.041016 14.954465 -0.576024 -1.298959 -3.521967 9.154817 6.304141 -50.002518 -1.984597 -35.948715 -19.730268 7.571022 19.445570 -6.055434 4.133239 -7.571093 3.089181 -14.089146 8.026228 47.770447 14.353392 -49.995407 16.883566 -14.531895 52.855633 -13.582703 -18.335419 -8.471091 -17.321814 7.127472 9.510318 22.281303 -6.732766 -7.852229 -3.271950 0.271997 -2.707054 -18.015907 -9.031947 -11.902500 26.331491 0.693073 -0.167861 -11.345277 -0.060351 -0.431586 
-1.554141 47.704613 -6.000986 3.412409 3.338537 -1.603962 0.000000 0.000000 0.000000 14.217150 4.437770 2.879858 -16.017874 0.282948 -2.431659 15.075544 -0.654077 -1.484501 -3.521967 9.154817 6.304141 -51.215755 -3.548366 -35.134148 -19.591520 7.465259 19.905115 -5.552050 4.594631 -7.655874 3.089181 -14.089146 8.026228 48.770397 15.140434 -49.078259 16.675018 -14.298984 53.462570 -13.263249 -18.549801 -8.473866 -17.812075 7.216825 9.543619 22.717186 -6.750733 -8.160926 -3.458431 0.255745 -2.472030 -18.413647 -8.961815 -11.805305 26.436932 0.697404 -0.629130 -11.219080 -0.065629 -0.325455 
-1.662960 47.677551 -6.243353 3.523042 3.368399 -1.203113 0.000000 0.000000 0.000000 14.585922 4.671065 3.067156 -16.697811 0.565719 -2.822321 15.187076 -0.722349 -1.670158 -3.521967 9.154817 6.304141 -52.440826 -5.093104 -34.283604 -19.456800 7.352904 20.353846 -5.049311 5.047339 -7.742414 3.089181 -14.089146 8.026228 49.784988 15.910898 -48.145332 16.477320 -14.070718 54.069393 -12.940159 -18.766809 -8.491132 -18.304796 7.301332 9.565701 23.165434 -6.761699 -8.440417 -3.670662 0.243857 -2.256261 -18.826195 -8.895346 -11.728622 26.541035 0.683660 -1.045902 -11.092204 -0.104867 -0.236202 
-1.738428 47.648388 -6.452297 3.546984 3.407559 -1.114795 0.000000 0.000000 0.000000 14.896482 4.826040 3.293430 -17.175207 0.702175 -2.978651 15.353241 -0.702805 -1.728745 -3.521967 9.154817 6.304141 -53.647072 -6.245088 -33.331253 -19.251711 7.203188 20.710098 -4.869010 6.128662 -7.868945 3.089181 -14.089146 8.026228 50.732414 17.023048 -47.013332 16.135986 -13.711723 54.399784 -12.680020 -18.568275 -8.514034 -18.554241 7.372843 9.754982 24.035284 -6.849868 -7.893161 -4.269744 0.230940 -1.925930 -19.138592 -8.846446 -11.670940 26.616919 0.693218 -1.244634 -11.073060 -0.093679 -0.198106 
-1.813838 47.619213 -6.661233 3.561870 3.446723 -1.017311 0.000000 0.000000 0.000000 15.208518 4.971072 3.529464 -17.662975 0.838595 -3.125237 15.509599 -0.683261 -1.787332 -3.521967 9.154817 6.304141 -54.878098 -7.376886 -32.338871 -19.045574 7.056228 21.066952 -4.692032 7.211018 -7.986870 3.089181 -14.089146 8.026228 51.700329 18.116138 -45.866943 15.789064 -13.360425 54.721645 -12.426962 -18.373470 -8.541121 -18.792255 7.447083 9.941747 24.882650 -6.943125 -7.365005 -4.881523 0.228586 -1.600590 -19.460291 -8.797206 -11.613384 26.692070 0.702716 -1.423913 -11.063532 -0.089739 -0.163616 
-1.852802 47.588547 -6.866416 3.667241 3.563707 -1.173858 0.000000 0.000000 0.000000 15.175495 4.892416 3.655941 -17.709518 0.984889 -3.096085 15.399286 -0.624728 -1.689566 -3.521967 9.154817 6.304141 -55.999382 -7.868258 -31.118908 -18.870316 6.836674 21.414335 -4.482120 8.032962 -8.083968 3.089181 -14.089146 8.026228 52.798588 19.604568 -44.414837 15.338855 -12.890383 55.236332 -12.329334 -18.464212 -8.543195 -18.876949 7.392778 10.308116 26.162823 -7.180809 -6.488925 -5.523269 0.197334 -1.361002 -19.921061 -8.817998 -11.547504 26.792637 0.693186 -1.236449 -10.965640 -0.105548 -0.171276 
-1.891728 47.557846 -7.071603 3.771971 3.680650 -1.330400 0.000000 0.000000 0.000000 15.131537 4.813811 3.773528 -17.765162 1.121439 -3.066965 15.279407 -0.566188 -1.591912 -3.521967 9.154817 6.304141 -57.123737 -8.333555 -29.892139 -18.690586 6.607288 21.770449 -4.284103 8.854426 -8.176226 3.089181 -14.089146 8.026228 53.945671 21.080271 -42.907257 14.878978 -12.417466 55.750652 -12.241829 -18.556440 -8.542445 -18.951996 7.332080 10.692958 27.424646 -7.417058 -5.596601 -6.163221 0.177092 -1.137197 -20.366325 -8.844465 -11.489614 26.893574 0.683655 -1.058729 -10.858429 -0.090518 -0.163715 
-1.906989 47.503223 -7.280927 4.040256 3.816773 -1.653880 0.000000 0.000000 0.000000 14.910077 4.512134 3.693262 -17.735342 1.199695 -2.842400 15.075921 -0.312408 -1.386751 -3.521967 9.154817 6.304141 -57.971245 -7.884658 -29.100401 -18.917284 6.259175 21.960115 -4.464445 9.154952 -8.203415 3.089181 -14.089146 8.026228 55.367958 23.093605 -41.463448 14.435748 -11.931600 56.829697 -12.908044 -19.153206 -8.469569 -18.898319 7.250607 11.195972 28.800022 -7.812613 -5.421002 -6.882077 0.148809 -0.724031 -21.088018 -8.883083 -11.378540 27.113661 0.624784 -0.652746 -10.809299 -0.114440 -0.164569 
-1.922226 47.448589 -7.490194 4.306999 3.952731 -1.976714 0.000000 0.000000 0.000000 14.689465 4.210394 3.613853 -17.695591 1.287718 -2.617843 14.864689 -0.068345 -1.181652 -3.521967 9.154817 6.304141 -58.804008 -7.428705 -28.318932 -19.141687 5.909424 22.148022 -4.646391 9.465057 -8.231335 3.089181 -14.089146 8.026228 56.863693 25.075676 -39.935047 13.977030 -11.454865 57.907028 -13.580521 -19.763453 -8.385490 -18.863962 7.175642 11.690097 30.184044 -8.222550 -5.240575 -7.587514 0.130291 -0.336879 -21.811819 -8.913370 -11.249049 27.324657 0.599908 -0.278781 -10.760231 -0.111761 -0.206502 
-1.923597 47.385517 -7.666729 4.439194 3.872782 -2.662053 0.000000 0.000000 0.000000 14.596801 3.860259 3.435727 -18.004156 1.678441 -2.207800 14.807830 -0.312484 -0.576217 -3.521967 9.154817 6.304141 -59.519497 -5.764415 -28.195934 -20.426266 5.192759 21.972290 -4.789584 9.770237 -8.265012 3.089181 -14.089146 8.026228 58.648102 27.646296 -38.362141 13.508986 -10.941093 58.991940 -14.324189 -20.600382 -8.291595 -18.385540 7.292945 12.358994 31.556414 -8.609626 -5.017810 -8.359155 0.056711 0.026377 -22.357351 -8.649054 -11.120168 27.478630 0.600321 0.302306 -10.545422 -0.091344 -0.239446 
-1.924873 47.322426 -7.843356 4.563519 3.792367 -3.346732 0.000000 0.000000 0.000000 14.507477 3.519672 3.268150 -18.297674 2.079055 -1.797818 14.755573 -0.556641 0.029295 -3.521967 9.154817 6.304141 -60.228218 -4.086994 -28.089697 -21.706228 4.495360 21.778038 -4.921489 10.077571 -8.287035 3.089181 -14.089146 8.026228 60.554764 30.174448 -36.661545 13.035173 -10.436313 60.066383 -15.079230 -21.438892 -8.167386 -17.890833 7.412568 13.018687 32.936657 -9.006239 -4.857138 -9.089521 0.046269 0.398803 -22.903910 -8.385338 -10.994128 27.612835 0.600208 0.892180 -10.330372 -0.092728 -0.261394 
